<mxfile host="app.diagrams.net" modified="2024-04-06T10:24:49.628Z" agent="Mozilla/5.0 (Windows NT 10.0; Win64; x64; rv:124.0) Gecko/20100101 Firefox/124.0" etag="YV86JS4g2B17D-Gu2CTz" version="23.0.2" type="device">
  <diagram name="Page-1" id="eC-LRIxB_F-nuuSLEzQd">
    <mxGraphModel dx="819" dy="426" grid="1" gridSize="10" guides="1" tooltips="1" connect="1" arrows="1" fold="1" page="1" pageScale="1" pageWidth="850" pageHeight="1100" math="0" shadow="0">
      <root>
        <mxCell id="0" />
        <mxCell id="1" parent="0" />
        <mxCell id="m_N1G-87fuSk5CA1S3Ku-66" value="Infrastructure Layer" style="rounded=0;whiteSpace=wrap;html=1;sketch=1;jiggle=2;curveFitting=1;strokeColor=none;align=left;verticalAlign=middle;fontFamily=Roboto;fontSource=https%3A%2F%2Ffonts.googleapis.com%2Fcss%3Ffamily%3DRoboto;fontSize=12;fillColor=#CDA2BE;fontColor=#000000;spacingLeft=10;fillStyle=auto;" vertex="1" parent="1">
          <mxGeometry x="90" y="550" width="750" height="70" as="geometry" />
        </mxCell>
        <mxCell id="m_N1G-87fuSk5CA1S3Ku-65" value="Presentation Layer" style="rounded=0;whiteSpace=wrap;html=1;sketch=1;jiggle=2;curveFitting=1;strokeColor=none;align=left;verticalAlign=middle;fontFamily=Roboto;fontSource=https%3A%2F%2Ffonts.googleapis.com%2Fcss%3Ffamily%3DRoboto;fontSize=12;fillColor=#FFE599;fontColor=#000000;spacingLeft=10;" vertex="1" parent="1">
          <mxGeometry x="90" y="240" width="750" height="80" as="geometry" />
        </mxCell>
        <mxCell id="m_N1G-87fuSk5CA1S3Ku-64" value="Application Layer" style="rounded=0;whiteSpace=wrap;html=1;sketch=1;jiggle=2;curveFitting=1;strokeColor=none;align=left;verticalAlign=middle;fontFamily=Roboto;fontSource=https%3A%2F%2Ffonts.googleapis.com%2Fcss%3Ffamily%3DRoboto;fontSize=12;fillColor=#A9C4EB;fontColor=#000000;spacingLeft=10;" vertex="1" parent="1">
          <mxGeometry x="90" y="320" width="750" height="80" as="geometry" />
        </mxCell>
        <mxCell id="m_N1G-87fuSk5CA1S3Ku-62" value="Domain Layer" style="rounded=0;whiteSpace=wrap;html=1;sketch=1;jiggle=2;curveFitting=1;strokeColor=none;align=left;verticalAlign=middle;fontFamily=Roboto;fontSource=https%3A%2F%2Ffonts.googleapis.com%2Fcss%3Ffamily%3DRoboto;fontSize=12;fillColor=#97D077;fontColor=#000000;spacingLeft=10;" vertex="1" parent="1">
          <mxGeometry x="90" y="400" width="750" height="150" as="geometry" />
        </mxCell>
        <mxCell id="m_N1G-87fuSk5CA1S3Ku-87" style="edgeStyle=none;shape=connector;rounded=0;sketch=1;jiggle=2;curveFitting=1;orthogonalLoop=1;jettySize=auto;html=1;exitX=0;exitY=0.5;exitDx=0;exitDy=0;labelBackgroundColor=default;strokeColor=default;align=center;verticalAlign=middle;fontFamily=Roboto;fontSource=https%3A%2F%2Ffonts.googleapis.com%2Fcss%3Ffamily%3DRoboto;fontSize=12;fontColor=default;endArrow=none;endFill=0;" edge="1" parent="1">
          <mxGeometry relative="1" as="geometry">
            <mxPoint x="340" y="446.0666666666667" as="targetPoint" />
            <mxPoint x="380" y="446" as="sourcePoint" />
          </mxGeometry>
        </mxCell>
        <mxCell id="m_N1G-87fuSk5CA1S3Ku-88" style="edgeStyle=none;shape=connector;rounded=0;sketch=1;jiggle=2;curveFitting=1;orthogonalLoop=1;jettySize=auto;html=1;labelBackgroundColor=default;strokeColor=default;align=center;verticalAlign=middle;fontFamily=Roboto;fontSource=https%3A%2F%2Ffonts.googleapis.com%2Fcss%3Ffamily%3DRoboto;fontSize=12;fontColor=default;endArrow=classic;entryX=0;entryY=0.25;entryDx=0;entryDy=0;" edge="1" parent="1">
          <mxGeometry relative="1" as="geometry">
            <mxPoint x="380" y="434" as="targetPoint" />
            <mxPoint x="353" y="434" as="sourcePoint" />
          </mxGeometry>
        </mxCell>
        <mxCell id="m_N1G-87fuSk5CA1S3Ku-10" value="Domain Logic&lt;br&gt;&lt;i&gt;&lt;font style=&quot;font-size: 9px;&quot;&gt;aggregates/domain services/factories&lt;/font&gt;&lt;/i&gt;" style="rounded=0;whiteSpace=wrap;html=1;sketch=1;jiggle=2;curveFitting=1;strokeColor=default;align=center;verticalAlign=middle;fontFamily=Roboto;fontSize=12;fontColor=default;fillColor=default;fontSource=https%3A%2F%2Ffonts.googleapis.com%2Fcss%3Ffamily%3DRoboto;" vertex="1" parent="1">
          <mxGeometry x="380" y="410" width="180" height="60" as="geometry" />
        </mxCell>
        <mxCell id="m_N1G-87fuSk5CA1S3Ku-2" value="RDBMS" style="shape=cylinder3;whiteSpace=wrap;html=1;boundedLbl=1;backgroundOutline=1;size=15;sketch=1;curveFitting=1;jiggle=2;fontFamily=Roboto;fontSource=https%3A%2F%2Ffonts.googleapis.com%2Fcss%3Ffamily%3DRoboto;" vertex="1" parent="1">
          <mxGeometry x="370" y="640" width="110" height="70" as="geometry" />
        </mxCell>
        <mxCell id="m_N1G-87fuSk5CA1S3Ku-17" value="" style="shape=actor;whiteSpace=wrap;html=1;rounded=0;sketch=1;jiggle=2;curveFitting=1;strokeColor=default;align=center;verticalAlign=middle;fontFamily=Helvetica;fontSize=12;fontColor=default;fillColor=default;" vertex="1" parent="1">
          <mxGeometry x="452.5" y="142" width="40" height="60" as="geometry" />
        </mxCell>
        <mxCell id="m_N1G-87fuSk5CA1S3Ku-3" value="" style="shape=actor;whiteSpace=wrap;html=1;rounded=0;sketch=1;jiggle=2;curveFitting=1;strokeColor=default;align=center;verticalAlign=middle;fontFamily=Helvetica;fontSize=12;fontColor=default;fillColor=default;" vertex="1" parent="1">
          <mxGeometry x="250" y="142" width="40" height="60" as="geometry" />
        </mxCell>
        <mxCell id="m_N1G-87fuSk5CA1S3Ku-38" value="Repositories" style="rounded=0;whiteSpace=wrap;html=1;sketch=1;curveFitting=1;jiggle=2;fontFamily=Roboto;fontSource=https%3A%2F%2Ffonts.googleapis.com%2Fcss%3Ffamily%3DRoboto;" vertex="1" parent="1">
          <mxGeometry x="320" y="570" width="90" height="30" as="geometry" />
        </mxCell>
        <mxCell id="m_N1G-87fuSk5CA1S3Ku-21" style="edgeStyle=none;shape=connector;rounded=0;sketch=1;jiggle=2;curveFitting=1;orthogonalLoop=1;jettySize=auto;html=1;exitX=0.074;exitY=1.064;exitDx=0;exitDy=0;entryX=0.316;entryY=-0.036;entryDx=0;entryDy=0;labelBackgroundColor=default;strokeColor=default;align=center;verticalAlign=middle;fontFamily=Roboto;fontSource=https%3A%2F%2Ffonts.googleapis.com%2Fcss%3Ffamily%3DRoboto;fontSize=12;fontColor=default;endArrow=classic;exitPerimeter=0;entryPerimeter=0;" edge="1" parent="1" source="m_N1G-87fuSk5CA1S3Ku-1" target="m_N1G-87fuSk5CA1S3Ku-5">
          <mxGeometry relative="1" as="geometry">
            <mxPoint x="251.7750000000001" y="212.27999999999997" as="sourcePoint" />
            <mxPoint x="250" y="330" as="targetPoint" />
          </mxGeometry>
        </mxCell>
        <mxCell id="m_N1G-87fuSk5CA1S3Ku-22" value="query" style="edgeLabel;html=1;align=center;verticalAlign=middle;resizable=0;points=[];fontSize=11;fontFamily=Roboto;fontColor=default;" vertex="1" connectable="0" parent="m_N1G-87fuSk5CA1S3Ku-21">
          <mxGeometry x="0.0001" relative="1" as="geometry">
            <mxPoint y="-4" as="offset" />
          </mxGeometry>
        </mxCell>
        <mxCell id="m_N1G-87fuSk5CA1S3Ku-23" style="edgeStyle=none;shape=connector;rounded=0;sketch=1;jiggle=2;curveFitting=1;orthogonalLoop=1;jettySize=auto;html=1;exitX=0.52;exitY=1.093;exitDx=0;exitDy=0;labelBackgroundColor=default;strokeColor=default;align=center;verticalAlign=middle;fontFamily=Roboto;fontSource=https%3A%2F%2Ffonts.googleapis.com%2Fcss%3Ffamily%3DRoboto;fontSize=12;fontColor=default;endArrow=classic;exitPerimeter=0;entryX=0.352;entryY=-0.036;entryDx=0;entryDy=0;entryPerimeter=0;" edge="1" parent="1" source="m_N1G-87fuSk5CA1S3Ku-1" target="m_N1G-87fuSk5CA1S3Ku-6">
          <mxGeometry relative="1" as="geometry">
            <mxPoint x="424.94999999999993" y="210" as="sourcePoint" />
            <mxPoint x="422.0049761991944" y="328.86" as="targetPoint" />
          </mxGeometry>
        </mxCell>
        <mxCell id="m_N1G-87fuSk5CA1S3Ku-24" value="command" style="edgeLabel;html=1;align=center;verticalAlign=middle;resizable=0;points=[];fontSize=11;fontFamily=Roboto;fontColor=default;" vertex="1" connectable="0" parent="m_N1G-87fuSk5CA1S3Ku-23">
          <mxGeometry x="-0.1479" y="-1" relative="1" as="geometry">
            <mxPoint x="1" y="-1" as="offset" />
          </mxGeometry>
        </mxCell>
        <mxCell id="m_N1G-87fuSk5CA1S3Ku-41" style="edgeStyle=none;shape=connector;rounded=0;sketch=1;jiggle=2;curveFitting=1;orthogonalLoop=1;jettySize=auto;html=1;exitX=0.178;exitY=-0.036;exitDx=0;exitDy=0;labelBackgroundColor=default;strokeColor=default;align=center;verticalAlign=middle;fontFamily=Roboto;fontSource=https%3A%2F%2Ffonts.googleapis.com%2Fcss%3Ffamily%3DRoboto;fontSize=12;fontColor=default;endArrow=classic;entryX=0.75;entryY=1;entryDx=0;entryDy=0;exitPerimeter=0;" edge="1" parent="1" source="m_N1G-87fuSk5CA1S3Ku-1" target="m_N1G-87fuSk5CA1S3Ku-3">
          <mxGeometry relative="1" as="geometry" />
        </mxCell>
        <mxCell id="m_N1G-87fuSk5CA1S3Ku-53" style="edgeStyle=none;shape=connector;rounded=0;sketch=1;jiggle=2;curveFitting=1;orthogonalLoop=1;jettySize=auto;html=1;exitX=0.791;exitY=-0.064;exitDx=0;exitDy=0;entryX=0.75;entryY=1;entryDx=0;entryDy=0;labelBackgroundColor=default;strokeColor=default;align=center;verticalAlign=middle;fontFamily=Roboto;fontSource=https%3A%2F%2Ffonts.googleapis.com%2Fcss%3Ffamily%3DRoboto;fontSize=12;fontColor=default;endArrow=classic;exitPerimeter=0;" edge="1" parent="1" source="m_N1G-87fuSk5CA1S3Ku-1" target="m_N1G-87fuSk5CA1S3Ku-17">
          <mxGeometry relative="1" as="geometry" />
        </mxCell>
        <mxCell id="m_N1G-87fuSk5CA1S3Ku-1" value="REST API&lt;br&gt;&lt;font style=&quot;font-size: 9px;&quot;&gt;&lt;i&gt;request validation/authorization/response mapping&lt;/i&gt;&lt;/font&gt;" style="rounded=0;whiteSpace=wrap;html=1;sketch=1;curveFitting=1;jiggle=2;fontFamily=Roboto;fontSource=https%3A%2F%2Ffonts.googleapis.com%2Fcss%3Ffamily%3DRoboto;" vertex="1" parent="1">
          <mxGeometry x="220" y="260" width="390" height="40" as="geometry" />
        </mxCell>
        <mxCell id="m_N1G-87fuSk5CA1S3Ku-49" style="edgeStyle=none;shape=connector;rounded=0;sketch=1;jiggle=2;curveFitting=1;orthogonalLoop=1;jettySize=auto;html=1;labelBackgroundColor=default;strokeColor=default;align=center;verticalAlign=middle;fontFamily=Roboto;fontSource=https%3A%2F%2Ffonts.googleapis.com%2Fcss%3Ffamily%3DRoboto;fontSize=12;fontColor=default;endArrow=classic;entryX=0.75;entryY=1;entryDx=0;entryDy=0;" edge="1" parent="1" source="m_N1G-87fuSk5CA1S3Ku-2" target="m_N1G-87fuSk5CA1S3Ku-38">
          <mxGeometry relative="1" as="geometry" />
        </mxCell>
        <mxCell id="m_N1G-87fuSk5CA1S3Ku-11" style="edgeStyle=none;shape=connector;rounded=0;sketch=1;jiggle=2;curveFitting=1;orthogonalLoop=1;jettySize=auto;html=1;exitX=0.25;exitY=1;exitDx=0;exitDy=0;labelBackgroundColor=default;strokeColor=default;align=center;verticalAlign=middle;fontFamily=Roboto;fontSource=https%3A%2F%2Ffonts.googleapis.com%2Fcss%3Ffamily%3DRoboto;fontSize=12;fontColor=default;endArrow=classic;entryX=0.079;entryY=-0.079;entryDx=0;entryDy=0;entryPerimeter=0;" edge="1" parent="1" source="m_N1G-87fuSk5CA1S3Ku-3" target="m_N1G-87fuSk5CA1S3Ku-1">
          <mxGeometry relative="1" as="geometry">
            <mxPoint x="375" y="150" as="targetPoint" />
          </mxGeometry>
        </mxCell>
        <mxCell id="m_N1G-87fuSk5CA1S3Ku-20" value="GET" style="edgeLabel;html=1;align=center;verticalAlign=middle;resizable=0;points=[];fontSize=11;fontFamily=Roboto;fontColor=default;" vertex="1" connectable="0" parent="m_N1G-87fuSk5CA1S3Ku-11">
          <mxGeometry x="-0.0437" y="-2" relative="1" as="geometry">
            <mxPoint as="offset" />
          </mxGeometry>
        </mxCell>
        <mxCell id="m_N1G-87fuSk5CA1S3Ku-42" style="edgeStyle=none;shape=connector;rounded=0;sketch=1;jiggle=2;curveFitting=1;orthogonalLoop=1;jettySize=auto;html=1;exitX=0.75;exitY=0;exitDx=0;exitDy=0;labelBackgroundColor=default;strokeColor=default;align=center;verticalAlign=middle;fontFamily=Roboto;fontSource=https%3A%2F%2Ffonts.googleapis.com%2Fcss%3Ffamily%3DRoboto;fontSize=12;fontColor=default;endArrow=classic;" edge="1" parent="1" source="m_N1G-87fuSk5CA1S3Ku-5">
          <mxGeometry relative="1" as="geometry">
            <mxPoint x="288" y="300" as="targetPoint" />
          </mxGeometry>
        </mxCell>
        <mxCell id="m_N1G-87fuSk5CA1S3Ku-43" style="edgeStyle=none;shape=connector;rounded=0;sketch=1;jiggle=2;curveFitting=1;orthogonalLoop=1;jettySize=auto;html=1;exitX=0.25;exitY=1;exitDx=0;exitDy=0;entryX=0.25;entryY=0;entryDx=0;entryDy=0;labelBackgroundColor=default;strokeColor=default;align=center;verticalAlign=middle;fontFamily=Roboto;fontSource=https%3A%2F%2Ffonts.googleapis.com%2Fcss%3Ffamily%3DRoboto;fontSize=12;fontColor=default;endArrow=classic;" edge="1" parent="1">
          <mxGeometry relative="1" as="geometry">
            <mxPoint x="249.5" y="370" as="sourcePoint" />
            <mxPoint x="249.5" y="570" as="targetPoint" />
          </mxGeometry>
        </mxCell>
        <mxCell id="m_N1G-87fuSk5CA1S3Ku-5" value="Query Handlers" style="rounded=0;whiteSpace=wrap;html=1;sketch=1;curveFitting=1;jiggle=2;fontFamily=Roboto;fontSource=https%3A%2F%2Ffonts.googleapis.com%2Fcss%3Ffamily%3DRoboto;" vertex="1" parent="1">
          <mxGeometry x="220" y="340" width="90" height="40" as="geometry" />
        </mxCell>
        <mxCell id="m_N1G-87fuSk5CA1S3Ku-25" style="edgeStyle=none;shape=connector;rounded=0;sketch=1;jiggle=2;curveFitting=1;orthogonalLoop=1;jettySize=auto;html=1;exitX=0.526;exitY=1.043;exitDx=0;exitDy=0;labelBackgroundColor=default;strokeColor=default;align=center;verticalAlign=middle;fontFamily=Roboto;fontSource=https%3A%2F%2Ffonts.googleapis.com%2Fcss%3Ffamily%3DRoboto;fontSize=12;fontColor=default;endArrow=classic;exitPerimeter=0;" edge="1" parent="1" source="m_N1G-87fuSk5CA1S3Ku-6" target="m_N1G-87fuSk5CA1S3Ku-10">
          <mxGeometry relative="1" as="geometry" />
        </mxCell>
        <mxCell id="m_N1G-87fuSk5CA1S3Ku-31" style="edgeStyle=none;shape=connector;rounded=0;sketch=1;jiggle=2;curveFitting=1;orthogonalLoop=1;jettySize=auto;html=1;labelBackgroundColor=default;strokeColor=default;align=center;verticalAlign=middle;fontFamily=Roboto;fontSource=https%3A%2F%2Ffonts.googleapis.com%2Fcss%3Ffamily%3DRoboto;fontSize=12;fontColor=default;endArrow=classic;exitX=0.329;exitY=0;exitDx=0;exitDy=0;exitPerimeter=0;entryX=0.114;entryY=0.997;entryDx=0;entryDy=0;entryPerimeter=0;" edge="1" parent="1" target="m_N1G-87fuSk5CA1S3Ku-6">
          <mxGeometry relative="1" as="geometry">
            <mxPoint x="352" y="570" as="sourcePoint" />
            <mxPoint x="353.31999999999994" y="371.15999999999997" as="targetPoint" />
          </mxGeometry>
        </mxCell>
        <mxCell id="m_N1G-87fuSk5CA1S3Ku-6" value="Command Handlers" style="rounded=0;whiteSpace=wrap;html=1;sketch=1;curveFitting=1;jiggle=2;fontFamily=Roboto;fontSource=https%3A%2F%2Ffonts.googleapis.com%2Fcss%3Ffamily%3DRoboto;" vertex="1" parent="1">
          <mxGeometry x="320" y="340" width="290" height="40" as="geometry" />
        </mxCell>
        <mxCell id="m_N1G-87fuSk5CA1S3Ku-28" style="edgeStyle=none;shape=connector;rounded=0;sketch=1;jiggle=2;curveFitting=1;orthogonalLoop=1;jettySize=auto;html=1;exitX=0.728;exitY=0.076;exitDx=0;exitDy=0;entryX=0.75;entryY=1;entryDx=0;entryDy=0;labelBackgroundColor=default;strokeColor=default;align=center;verticalAlign=middle;fontFamily=Roboto;fontSource=https%3A%2F%2Ffonts.googleapis.com%2Fcss%3Ffamily%3DRoboto;fontSize=12;fontColor=default;endArrow=classic;exitPerimeter=0;" edge="1" parent="1" source="m_N1G-87fuSk5CA1S3Ku-34" target="m_N1G-87fuSk5CA1S3Ku-5">
          <mxGeometry relative="1" as="geometry">
            <mxPoint x="312.9200000000001" y="567.15" as="sourcePoint" />
          </mxGeometry>
        </mxCell>
        <mxCell id="m_N1G-87fuSk5CA1S3Ku-18" style="edgeStyle=none;shape=connector;rounded=0;sketch=1;jiggle=2;curveFitting=1;orthogonalLoop=1;jettySize=auto;html=1;exitX=0.25;exitY=1;exitDx=0;exitDy=0;labelBackgroundColor=default;strokeColor=default;align=center;verticalAlign=middle;fontFamily=Roboto;fontSource=https%3A%2F%2Ffonts.googleapis.com%2Fcss%3Ffamily%3DRoboto;fontSize=12;fontColor=default;endArrow=classic;entryX=0.524;entryY=-0.048;entryDx=0;entryDy=0;entryPerimeter=0;" edge="1" parent="1" source="m_N1G-87fuSk5CA1S3Ku-17" target="m_N1G-87fuSk5CA1S3Ku-1">
          <mxGeometry relative="1" as="geometry">
            <mxPoint x="455" y="148" as="targetPoint" />
          </mxGeometry>
        </mxCell>
        <mxCell id="m_N1G-87fuSk5CA1S3Ku-19" value="POST/PUT&lt;br style=&quot;font-size: 11px;&quot;&gt;PATCH/DELETE" style="edgeLabel;html=1;align=center;verticalAlign=middle;resizable=0;points=[];fontSize=11;fontFamily=Roboto;fontColor=default;fontStyle=0" vertex="1" connectable="0" parent="m_N1G-87fuSk5CA1S3Ku-18">
          <mxGeometry x="-0.1602" y="-1" relative="1" as="geometry">
            <mxPoint x="2" as="offset" />
          </mxGeometry>
        </mxCell>
        <mxCell id="m_N1G-87fuSk5CA1S3Ku-34" value="Query Context" style="rounded=0;whiteSpace=wrap;html=1;sketch=1;curveFitting=1;jiggle=2;fontFamily=Roboto;fontSource=https%3A%2F%2Ffonts.googleapis.com%2Fcss%3Ffamily%3DRoboto;" vertex="1" parent="1">
          <mxGeometry x="220" y="570" width="90" height="30" as="geometry" />
        </mxCell>
        <mxCell id="m_N1G-87fuSk5CA1S3Ku-40" style="edgeStyle=none;shape=connector;rounded=0;sketch=1;jiggle=2;curveFitting=1;orthogonalLoop=1;jettySize=auto;html=1;labelBackgroundColor=default;strokeColor=default;align=center;verticalAlign=middle;fontFamily=Roboto;fontSource=https%3A%2F%2Ffonts.googleapis.com%2Fcss%3Ffamily%3DRoboto;fontSize=12;fontColor=default;endArrow=classic;exitX=0.25;exitY=1;exitDx=0;exitDy=0;" edge="1" parent="1" source="m_N1G-87fuSk5CA1S3Ku-38" target="m_N1G-87fuSk5CA1S3Ku-2">
          <mxGeometry relative="1" as="geometry" />
        </mxCell>
        <mxCell id="m_N1G-87fuSk5CA1S3Ku-45" style="edgeStyle=none;shape=connector;rounded=0;sketch=1;jiggle=2;curveFitting=1;orthogonalLoop=1;jettySize=auto;html=1;exitX=0.829;exitY=0.036;exitDx=0;exitDy=0;labelBackgroundColor=default;strokeColor=default;align=center;verticalAlign=middle;fontFamily=Roboto;fontSource=https%3A%2F%2Ffonts.googleapis.com%2Fcss%3Ffamily%3DRoboto;fontSize=12;fontColor=default;endArrow=classic;exitPerimeter=0;entryX=0.899;entryY=1.021;entryDx=0;entryDy=0;entryPerimeter=0;" edge="1" parent="1">
          <mxGeometry relative="1" as="geometry">
            <mxPoint x="532.4099999999999" y="341.43999999999994" as="sourcePoint" />
            <mxPoint x="532.6100000000001" y="300.84000000000003" as="targetPoint" />
          </mxGeometry>
        </mxCell>
        <mxCell id="m_N1G-87fuSk5CA1S3Ku-54" value="Unit Of Work" style="rounded=0;whiteSpace=wrap;html=1;sketch=1;curveFitting=1;jiggle=2;fontFamily=Roboto;fontSource=https%3A%2F%2Ffonts.googleapis.com%2Fcss%3Ffamily%3DRoboto;" vertex="1" parent="1">
          <mxGeometry x="530" y="570" width="90" height="30" as="geometry" />
        </mxCell>
        <mxCell id="m_N1G-87fuSk5CA1S3Ku-78" style="edgeStyle=none;shape=connector;rounded=0;sketch=1;jiggle=2;curveFitting=1;orthogonalLoop=1;jettySize=auto;html=1;labelBackgroundColor=default;strokeColor=default;align=center;verticalAlign=middle;fontFamily=Roboto;fontSource=https%3A%2F%2Ffonts.googleapis.com%2Fcss%3Ffamily%3DRoboto;fontSize=12;fontColor=default;endArrow=classic;entryX=0.5;entryY=0;entryDx=0;entryDy=0;" edge="1" parent="1" source="m_N1G-87fuSk5CA1S3Ku-58" target="m_N1G-87fuSk5CA1S3Ku-77">
          <mxGeometry relative="1" as="geometry">
            <mxPoint x="465.68" y="530" as="sourcePoint" />
            <mxPoint x="464.31636363636375" y="560" as="targetPoint" />
          </mxGeometry>
        </mxCell>
        <mxCell id="m_N1G-87fuSk5CA1S3Ku-84" style="edgeStyle=none;shape=connector;rounded=0;sketch=1;jiggle=2;curveFitting=1;orthogonalLoop=1;jettySize=auto;html=1;exitX=0.5;exitY=0;exitDx=0;exitDy=0;labelBackgroundColor=default;strokeColor=default;align=center;verticalAlign=middle;fontFamily=Roboto;fontSource=https%3A%2F%2Ffonts.googleapis.com%2Fcss%3Ffamily%3DRoboto;fontSize=12;fontColor=default;endArrow=classic;" edge="1" parent="1" source="m_N1G-87fuSk5CA1S3Ku-58" target="m_N1G-87fuSk5CA1S3Ku-10">
          <mxGeometry relative="1" as="geometry" />
        </mxCell>
        <mxCell id="m_N1G-87fuSk5CA1S3Ku-58" value="Domain Event Handlers" style="rounded=0;whiteSpace=wrap;html=1;sketch=1;jiggle=2;curveFitting=1;strokeColor=default;align=center;verticalAlign=middle;fontFamily=Roboto;fontSize=12;fontColor=default;fillColor=default;fontSource=https%3A%2F%2Ffonts.googleapis.com%2Fcss%3Ffamily%3DRoboto;" vertex="1" parent="1">
          <mxGeometry x="380" y="490" width="180" height="40" as="geometry" />
        </mxCell>
        <mxCell id="m_N1G-87fuSk5CA1S3Ku-59" style="edgeStyle=none;shape=connector;rounded=0;sketch=1;jiggle=2;curveFitting=1;orthogonalLoop=1;jettySize=auto;html=1;exitX=0.25;exitY=0;exitDx=0;exitDy=0;entryX=0.918;entryY=0.971;entryDx=0;entryDy=0;labelBackgroundColor=default;strokeColor=default;align=center;verticalAlign=middle;fontFamily=Roboto;fontSource=https%3A%2F%2Ffonts.googleapis.com%2Fcss%3Ffamily%3DRoboto;fontSize=12;fontColor=default;endArrow=classic;entryPerimeter=0;" edge="1" parent="1" source="m_N1G-87fuSk5CA1S3Ku-54" target="m_N1G-87fuSk5CA1S3Ku-58">
          <mxGeometry relative="1" as="geometry" />
        </mxCell>
        <mxCell id="m_N1G-87fuSk5CA1S3Ku-60" value="domain events" style="edgeLabel;html=1;align=center;verticalAlign=middle;resizable=0;points=[];fontSize=11;fontFamily=Roboto;fontColor=default;" vertex="1" connectable="0" parent="m_N1G-87fuSk5CA1S3Ku-59">
          <mxGeometry x="-0.0393" y="-1" relative="1" as="geometry">
            <mxPoint as="offset" />
          </mxGeometry>
        </mxCell>
        <mxCell id="m_N1G-87fuSk5CA1S3Ku-67" value="Integration Event Handlers" style="rounded=0;whiteSpace=wrap;html=1;sketch=1;jiggle=2;curveFitting=1;strokeColor=default;align=center;verticalAlign=middle;fontFamily=Roboto;fontSize=12;fontColor=default;fillColor=default;fontSource=https%3A%2F%2Ffonts.googleapis.com%2Fcss%3Ffamily%3DRoboto;" vertex="1" parent="1">
          <mxGeometry x="670" y="340" width="135" height="40" as="geometry" />
        </mxCell>
        <mxCell id="m_N1G-87fuSk5CA1S3Ku-68" value="Email Sender" style="rounded=0;whiteSpace=wrap;html=1;sketch=1;curveFitting=1;jiggle=2;fontFamily=Roboto;fontSource=https%3A%2F%2Ffonts.googleapis.com%2Fcss%3Ffamily%3DRoboto;" vertex="1" parent="1">
          <mxGeometry x="750" y="570" width="80" height="30" as="geometry" />
        </mxCell>
        <mxCell id="m_N1G-87fuSk5CA1S3Ku-70" value="Email Service" style="rounded=0;whiteSpace=wrap;html=1;sketch=1;curveFitting=1;jiggle=2;fontFamily=Roboto;fontSource=https%3A%2F%2Ffonts.googleapis.com%2Fcss%3Ffamily%3DRoboto;" vertex="1" parent="1">
          <mxGeometry x="700" y="650" width="110" height="40" as="geometry" />
        </mxCell>
        <mxCell id="m_N1G-87fuSk5CA1S3Ku-72" style="edgeStyle=none;shape=connector;rounded=0;sketch=1;jiggle=2;curveFitting=1;orthogonalLoop=1;jettySize=auto;html=1;exitX=0.103;exitY=1.029;exitDx=0;exitDy=0;entryX=0.643;entryY=-0.038;entryDx=0;entryDy=0;entryPerimeter=0;labelBackgroundColor=default;strokeColor=default;align=center;verticalAlign=middle;fontFamily=Roboto;fontSource=https%3A%2F%2Ffonts.googleapis.com%2Fcss%3Ffamily%3DRoboto;fontSize=12;fontColor=default;endArrow=classic;exitPerimeter=0;" edge="1" parent="1" source="m_N1G-87fuSk5CA1S3Ku-58" target="m_N1G-87fuSk5CA1S3Ku-38">
          <mxGeometry relative="1" as="geometry" />
        </mxCell>
        <mxCell id="m_N1G-87fuSk5CA1S3Ku-73" style="edgeStyle=none;shape=connector;rounded=0;sketch=1;jiggle=2;curveFitting=1;orthogonalLoop=1;jettySize=auto;html=1;exitX=0.75;exitY=0;exitDx=0;exitDy=0;entryX=0.2;entryY=1.014;entryDx=0;entryDy=0;entryPerimeter=0;labelBackgroundColor=default;strokeColor=default;align=center;verticalAlign=middle;fontFamily=Roboto;fontSource=https%3A%2F%2Ffonts.googleapis.com%2Fcss%3Ffamily%3DRoboto;fontSize=12;fontColor=default;endArrow=classic;" edge="1" parent="1" source="m_N1G-87fuSk5CA1S3Ku-38" target="m_N1G-87fuSk5CA1S3Ku-58">
          <mxGeometry relative="1" as="geometry" />
        </mxCell>
        <mxCell id="m_N1G-87fuSk5CA1S3Ku-76" style="edgeStyle=none;shape=connector;rounded=0;sketch=1;jiggle=2;curveFitting=1;orthogonalLoop=1;jettySize=auto;html=1;exitX=0.5;exitY=0;exitDx=0;exitDy=0;entryX=0.25;entryY=1;entryDx=0;entryDy=0;labelBackgroundColor=default;strokeColor=default;align=center;verticalAlign=middle;fontFamily=Roboto;fontSource=https%3A%2F%2Ffonts.googleapis.com%2Fcss%3Ffamily%3DRoboto;fontSize=12;fontColor=default;endArrow=classic;" edge="1" parent="1" source="m_N1G-87fuSk5CA1S3Ku-74" target="m_N1G-87fuSk5CA1S3Ku-67">
          <mxGeometry relative="1" as="geometry" />
        </mxCell>
        <mxCell id="m_N1G-87fuSk5CA1S3Ku-81" value="integration events" style="edgeLabel;html=1;align=center;verticalAlign=middle;resizable=0;points=[];fontSize=11;fontFamily=Roboto;fontColor=default;" vertex="1" connectable="0" parent="m_N1G-87fuSk5CA1S3Ku-76">
          <mxGeometry x="-0.0288" y="-3" relative="1" as="geometry">
            <mxPoint as="offset" />
          </mxGeometry>
        </mxCell>
        <mxCell id="m_N1G-87fuSk5CA1S3Ku-74" value="Outbox Processor&lt;br&gt;&lt;font size=&quot;1&quot;&gt;&lt;i style=&quot;font-size: 9px;&quot;&gt;background job&lt;/i&gt;&lt;/font&gt;" style="rounded=0;whiteSpace=wrap;html=1;sketch=1;curveFitting=1;jiggle=2;fontFamily=Roboto;fontSource=https%3A%2F%2Ffonts.googleapis.com%2Fcss%3Ffamily%3DRoboto;" vertex="1" parent="1">
          <mxGeometry x="630" y="560" width="110" height="50" as="geometry" />
        </mxCell>
        <mxCell id="m_N1G-87fuSk5CA1S3Ku-77" value="Integration Event Manager" style="rounded=0;whiteSpace=wrap;html=1;sketch=1;curveFitting=1;jiggle=2;fontFamily=Roboto;fontSource=https%3A%2F%2Ffonts.googleapis.com%2Fcss%3Ffamily%3DRoboto;" vertex="1" parent="1">
          <mxGeometry x="417.5" y="560" width="102.5" height="50" as="geometry" />
        </mxCell>
        <mxCell id="m_N1G-87fuSk5CA1S3Ku-75" style="edgeStyle=none;shape=connector;rounded=0;sketch=1;jiggle=2;curveFitting=1;orthogonalLoop=1;jettySize=auto;html=1;entryX=0.5;entryY=1;entryDx=0;entryDy=0;labelBackgroundColor=default;strokeColor=default;align=center;verticalAlign=middle;fontFamily=Roboto;fontSource=https%3A%2F%2Ffonts.googleapis.com%2Fcss%3Ffamily%3DRoboto;fontSize=12;fontColor=default;endArrow=classic;" edge="1" parent="1" source="m_N1G-87fuSk5CA1S3Ku-2" target="m_N1G-87fuSk5CA1S3Ku-74">
          <mxGeometry relative="1" as="geometry" />
        </mxCell>
        <mxCell id="m_N1G-87fuSk5CA1S3Ku-55" style="edgeStyle=none;shape=connector;rounded=0;sketch=1;jiggle=2;curveFitting=1;orthogonalLoop=1;jettySize=auto;html=1;exitX=0.945;exitY=1;exitDx=0;exitDy=0;labelBackgroundColor=default;strokeColor=default;align=center;verticalAlign=middle;fontFamily=Roboto;fontSource=https%3A%2F%2Ffonts.googleapis.com%2Fcss%3Ffamily%3DRoboto;fontSize=12;fontColor=default;endArrow=classic;exitPerimeter=0;entryX=0.75;entryY=0;entryDx=0;entryDy=0;" edge="1" parent="1" source="m_N1G-87fuSk5CA1S3Ku-6" target="m_N1G-87fuSk5CA1S3Ku-54">
          <mxGeometry relative="1" as="geometry" />
        </mxCell>
        <mxCell id="m_N1G-87fuSk5CA1S3Ku-56" value="save&lt;br&gt;changes" style="edgeLabel;html=1;align=center;verticalAlign=middle;resizable=0;points=[];fontSize=11;fontFamily=Roboto;fontColor=default;" vertex="1" connectable="0" parent="m_N1G-87fuSk5CA1S3Ku-55">
          <mxGeometry x="-0.1115" relative="1" as="geometry">
            <mxPoint y="6" as="offset" />
          </mxGeometry>
        </mxCell>
        <mxCell id="m_N1G-87fuSk5CA1S3Ku-57" style="edgeStyle=none;shape=connector;rounded=0;sketch=1;jiggle=2;curveFitting=1;orthogonalLoop=1;jettySize=auto;html=1;exitX=0.5;exitY=1;exitDx=0;exitDy=0;labelBackgroundColor=default;strokeColor=default;align=center;verticalAlign=middle;fontFamily=Roboto;fontSource=https%3A%2F%2Ffonts.googleapis.com%2Fcss%3Ffamily%3DRoboto;fontSize=12;fontColor=default;endArrow=classic;" edge="1" parent="1" source="m_N1G-87fuSk5CA1S3Ku-54" target="m_N1G-87fuSk5CA1S3Ku-2">
          <mxGeometry relative="1" as="geometry">
            <mxPoint x="460" y="649" as="targetPoint" />
          </mxGeometry>
        </mxCell>
        <mxCell id="m_N1G-87fuSk5CA1S3Ku-80" style="edgeStyle=none;shape=connector;rounded=0;sketch=1;jiggle=2;curveFitting=1;orthogonalLoop=1;jettySize=auto;html=1;exitX=0.5;exitY=1;exitDx=0;exitDy=0;labelBackgroundColor=default;strokeColor=default;align=center;verticalAlign=middle;fontFamily=Roboto;fontSource=https%3A%2F%2Ffonts.googleapis.com%2Fcss%3Ffamily%3DRoboto;fontSize=12;fontColor=default;endArrow=classic;" edge="1" parent="1" source="m_N1G-87fuSk5CA1S3Ku-77" target="m_N1G-87fuSk5CA1S3Ku-2">
          <mxGeometry relative="1" as="geometry" />
        </mxCell>
        <mxCell id="m_N1G-87fuSk5CA1S3Ku-48" style="edgeStyle=none;shape=connector;rounded=0;sketch=1;jiggle=2;curveFitting=1;orthogonalLoop=1;jettySize=auto;html=1;exitX=0.145;exitY=0;exitDx=0;exitDy=4.35;exitPerimeter=0;entryX=0.75;entryY=1;entryDx=0;entryDy=0;labelBackgroundColor=default;strokeColor=default;align=center;verticalAlign=middle;fontFamily=Roboto;fontSource=https%3A%2F%2Ffonts.googleapis.com%2Fcss%3Ffamily%3DRoboto;fontSize=12;fontColor=default;endArrow=classic;" edge="1" parent="1" source="m_N1G-87fuSk5CA1S3Ku-2" target="m_N1G-87fuSk5CA1S3Ku-34">
          <mxGeometry relative="1" as="geometry" />
        </mxCell>
        <mxCell id="m_N1G-87fuSk5CA1S3Ku-39" style="edgeStyle=none;shape=connector;rounded=0;sketch=1;jiggle=2;curveFitting=1;orthogonalLoop=1;jettySize=auto;html=1;exitX=0.25;exitY=1;exitDx=0;exitDy=0;labelBackgroundColor=default;strokeColor=default;align=center;verticalAlign=middle;fontFamily=Roboto;fontSource=https%3A%2F%2Ffonts.googleapis.com%2Fcss%3Ffamily%3DRoboto;fontSize=12;fontColor=default;endArrow=classic;" edge="1" parent="1" source="m_N1G-87fuSk5CA1S3Ku-34" target="m_N1G-87fuSk5CA1S3Ku-2">
          <mxGeometry relative="1" as="geometry" />
        </mxCell>
        <mxCell id="m_N1G-87fuSk5CA1S3Ku-69" style="edgeStyle=none;shape=connector;rounded=0;sketch=1;jiggle=2;curveFitting=1;orthogonalLoop=1;jettySize=auto;html=1;exitX=0.75;exitY=1;exitDx=0;exitDy=0;entryX=0.5;entryY=0;entryDx=0;entryDy=0;labelBackgroundColor=default;strokeColor=default;align=center;verticalAlign=middle;fontFamily=Roboto;fontSource=https%3A%2F%2Ffonts.googleapis.com%2Fcss%3Ffamily%3DRoboto;fontSize=12;fontColor=default;endArrow=classic;" edge="1" parent="1" source="m_N1G-87fuSk5CA1S3Ku-67" target="m_N1G-87fuSk5CA1S3Ku-68">
          <mxGeometry relative="1" as="geometry" />
        </mxCell>
        <mxCell id="m_N1G-87fuSk5CA1S3Ku-71" style="edgeStyle=none;shape=connector;rounded=0;sketch=1;jiggle=2;curveFitting=1;orthogonalLoop=1;jettySize=auto;html=1;exitX=0.5;exitY=1;exitDx=0;exitDy=0;labelBackgroundColor=default;strokeColor=default;align=center;verticalAlign=middle;fontFamily=Roboto;fontSource=https%3A%2F%2Ffonts.googleapis.com%2Fcss%3Ffamily%3DRoboto;fontSize=12;fontColor=default;endArrow=classic;" edge="1" parent="1" source="m_N1G-87fuSk5CA1S3Ku-68" target="m_N1G-87fuSk5CA1S3Ku-70">
          <mxGeometry relative="1" as="geometry" />
        </mxCell>
        <mxCell id="m_N1G-87fuSk5CA1S3Ku-30" style="edgeStyle=none;shape=connector;rounded=0;sketch=1;jiggle=2;curveFitting=1;orthogonalLoop=1;jettySize=auto;html=1;labelBackgroundColor=default;strokeColor=default;align=center;verticalAlign=middle;fontFamily=Roboto;fontSource=https%3A%2F%2Ffonts.googleapis.com%2Fcss%3Ffamily%3DRoboto;fontSize=12;fontColor=default;endArrow=classic;entryX=0.204;entryY=0.035;entryDx=0;entryDy=0;entryPerimeter=0;exitX=0.07;exitY=0.986;exitDx=0;exitDy=0;exitPerimeter=0;" edge="1" parent="1" source="m_N1G-87fuSk5CA1S3Ku-6" target="m_N1G-87fuSk5CA1S3Ku-38">
          <mxGeometry relative="1" as="geometry">
            <mxPoint x="384" y="420" as="sourcePoint" />
            <mxPoint x="380.0000000000001" y="570" as="targetPoint" />
          </mxGeometry>
        </mxCell>
        <mxCell id="m_N1G-87fuSk5CA1S3Ku-61" value="retrieve&lt;br style=&quot;font-size: 11px;&quot;&gt;aggregates" style="edgeLabel;html=1;align=center;verticalAlign=middle;resizable=0;points=[];fontSize=11;fontFamily=Roboto;fontColor=default;labelBackgroundColor=default;spacing=2;spacingTop=0;" vertex="1" connectable="0" parent="m_N1G-87fuSk5CA1S3Ku-30">
          <mxGeometry x="-0.0878" relative="1" as="geometry">
            <mxPoint x="7" y="3" as="offset" />
          </mxGeometry>
        </mxCell>
      </root>
    </mxGraphModel>
  </diagram>
</mxfile>
